<svg width="31" height="30" viewBox="0 0 31 30" fill="none" xmlns="http://www.w3.org/2000/svg">
    <path d="M1.00263 30C0.817447 30 0.447077 29.8148 0.261891 29.8148C0.0767063 29.6296 -0.108479 29.0741 0.0767062 28.8889L2.6693 22.2222C1.373 20 0.632262 17.4074 0.632262 14.8148C0.632262 6.66667 7.29893 0 15.4471 0C23.5952 0 30.0767 6.66667 30.0767 14.6296C30.0767 22.7778 23.41 29.2593 15.4471 29.2593C12.8545 29.2593 10.2619 28.5185 8.03967 27.2222L1.373 29.8148C1.18782 30 1.00263 30 1.00263 30ZM8.03967 25.3704C8.22485 25.3704 8.41004 25.3704 8.59522 25.5556C10.6323 26.8519 13.0397 27.5926 15.4471 27.5926C22.4841 27.5926 28.2249 21.8519 28.2249 14.8148C28.2249 7.77778 22.4841 2.03704 15.4471 2.03704C8.22485 1.85185 2.48411 7.59259 2.48411 14.8148C2.48411 17.2222 3.22485 19.6296 4.52115 21.6667C4.70634 21.8519 4.70634 22.2222 4.52115 22.5926L2.48411 27.5926L7.48411 25.5556C7.85448 25.3704 7.85448 25.3704 8.03967 25.3704Z" fill="#F9866F"/>
    </svg>
    