<svg width="32" height="32" viewBox="0 0 32 32" fill="none" xmlns="http://www.w3.org/2000/svg">
    <path d="M22.9527 1V17.5M30.4527 12.7V5.8C30.4527 4.11984 30.4527 3.27976 30.1257 2.63803C29.8381 2.07354 29.3792 1.6146 28.8147 1.32698C28.173 1 27.3329 1 25.6527 1H9.62973C7.43751 1 6.3414 1 5.45609 1.40115C4.67581 1.75471 4.01267 2.32363 3.54457 3.04107C3.01347 3.85509 2.8468 4.93846 2.51346 7.10519L1.72884 12.2052C1.28918 15.063 1.06935 16.4919 1.49342 17.6037C1.86563 18.5795 2.56569 19.3955 3.4736 19.9118C4.50801 20.5 5.95372 20.5 8.84512 20.5H10.0527C10.8928 20.5 11.3128 20.5 11.6337 20.6635C11.9159 20.8073 12.1454 21.0368 12.2892 21.319C12.4527 21.6399 12.4527 22.0599 12.4527 22.9V27.3012C12.4527 29.344 14.1087 31 16.1515 31C16.6387 31 17.0802 30.7131 17.2781 30.2678L22.3193 18.9253C22.5486 18.4094 22.6632 18.1514 22.8444 17.9623C23.0046 17.7951 23.2013 17.6673 23.4191 17.5888C23.6656 17.5 23.9479 17.5 24.5124 17.5H25.6527C27.3329 17.5 28.173 17.5 28.8147 17.173C29.3792 16.8854 29.8381 16.4265 30.1257 15.862C30.4527 15.2202 30.4527 14.3802 30.4527 12.7Z" stroke="#F9866F" stroke-width="2" stroke-linecap="round" stroke-linejoin="round"/>
    </svg>
