<svg width="31" height="7" viewBox="0 0 31 7" fill="none" xmlns="http://www.w3.org/2000/svg">
    <path d="M15.5482 6.80827C17.3891 6.80827 18.8815 5.31588 18.8815 3.47493C18.8815 1.63399 17.3891 0.141602 15.5482 0.141602C13.7072 0.141602 12.2148 1.63399 12.2148 3.47493C12.2148 5.31588 13.7072 6.80827 15.5482 6.80827Z" fill="#F9866F"/>
    <path d="M27.2122 6.80827C29.0532 6.80827 30.5456 5.31588 30.5456 3.47493C30.5456 1.63399 29.0532 0.141602 27.2122 0.141602C25.3713 0.141602 23.8789 1.63399 23.8789 3.47493C23.8789 5.31588 25.3713 6.80827 27.2122 6.80827Z" fill="#F9866F"/>
    <path d="M3.88021 6.80827C5.72116 6.80827 7.21354 5.31588 7.21354 3.47493C7.21354 1.63399 5.72116 0.141602 3.88021 0.141602C2.03926 0.141602 0.546875 1.63399 0.546875 3.47493C0.546875 5.31588 2.03926 6.80827 3.88021 6.80827Z" fill="#F9866F"/>
    </svg>
    